<?xml version="1.0" encoding="utf-8"?>
<!-- Generator: Adobe Illustrator 17.0.0, SVG Export Plug-In . SVG Version: 6.00 Build 0)  -->
<!DOCTYPE svg PUBLIC "-//W3C//DTD SVG 1.1//EN" "http://www.w3.org/Graphics/SVG/1.1/DTD/svg11.dtd">
<svg version="1.1" id="Capa_6" xmlns="http://www.w3.org/2000/svg" xmlns:xlink="http://www.w3.org/1999/xlink" x="0px" y="0px"
	 width="141.732px" height="110.551px" viewBox="0 0 141.732 110.551" enable-background="new 0 0 141.732 110.551"
	 xml:space="preserve">
<g>
	<path fill="#BEFF6A" d="M141.646,15.493l-0.918-14.55l-22.512,23.334l0.289-2.421l-0.006-0.382
		C118.326,9.621,105.436,4.486,97.791,3.309C67.529-2.228,46.197,2.59,43.125,3.356c-16.865,3.029-20.336,12.173-21.03,15.302
		c-0.237,0.821-0.35,1.661-0.348,2.561l0.042,0.987L0,0.001l0.166,15.964c0.017,1.731,0.684,41.635,24.165,59.566l0.738,12.437
		l0.06,0.568c0.315,2.094,4.226,20.502,43.733,22.012l0.178,0.003c3.382,0,33.297-0.537,42.272-19.124l0.53-1.105l0.824-11.581
		C144.176,61.37,141.766,17.384,141.646,15.493z"/>
	<g>
		<path fill="#5D007F" d="M137.23,15.773l-0.287-4.536l-24.719,25.623l1.84-15.078l0.013-0.121l-0.002-0.122
			C113.912,10.375,97.69,7.769,97.059,7.673C66.813,2.126,45.785,7.241,44.055,7.684C28.998,10.34,26.699,18.163,26.384,19.756
			c-0.143,0.446-0.215,0.912-0.213,1.445l0.577,12.375L4.539,10.943l0.052,4.978c0.018,1.768,0.724,41.36,24.034,57.254
			l0.862,14.531l0.019,0.171c0.103,0.687,2.977,16.853,39.527,18.25c0.003,0,0.006,0,0.009,0c1.375,0,30.362-0.207,38.282-16.611
			l0.166-0.346l0.95-13.355l0.773-0.25C139.676,60.067,137.344,17.575,137.23,15.773z M44.825,11.62l0.166-0.037
			c0.211-0.054,21.376-5.459,51.401,0.043c0.122,0.019,10.693,1.743,13.147,7.573c-2.078,0.85-4.226,1.634-6.436,2.349l-2.407-5.946
			l-7.91,8.811c-4.669,0.948-9.062,1.51-12.743,1.839l-21.483-0.146c-4.043-0.383-8.813-1.011-13.661-2.046l-0.971-0.324
			c-2.006-2.601-3.531-4.596-3.531-4.596l-1.213,3.489c-3.154-0.903-6.009-1.944-8.527-3.105
			C31.522,17.625,34.56,13.412,44.825,11.62z M30.302,23.77c2.298,0.981,4.841,1.862,7.565,2.65l-1.979,5.694l5.549-6.042
			l11.913,9.508c-0.579-0.542-2.987-3.569-5.573-6.881c11.462,2.032,21.365,2.004,21.776,2.016c0.078,0.002,0.468,0.012,1.129,0.012
			c2.595,0,9.362-0.15,17.748-1.461L77.12,41.863l16.524-13.532c0.041-0.008,0.081-0.015,0.122-0.024l-0.013-0.065l5.364-4.393
			l2.845,7.029l4.226-1.711l-1.578-3.897c1.78-0.582,3.518-1.207,5.22-1.874l-2.65,21.719l-0.011,0.214
			c0,0.271-0.235,0.66-0.642,1.067c-1.668,1.664-5.436,3.208-10.287,4.415c2.215-3.168,3.954-8.118,3.954-15.885v-4.809
			L72.347,54.512l0.158,15.453l0.22-0.038l3.34-12.604c10.946-0.176,23.934-2.281,30.59-6.109l-1.786,16.8l-0.009,0.197
			c0,2.385-4.866,6.255-18.234,7.143c-1.014,0.049-3.54-0.014-5.826-0.613c1.149-1.853,2.027-4.548-0.739-6.515
			c-4.621-3.286-5.648,0.821-5.648,0.821s2.464-2.054,3.389,0.411c0.741,1.975-1.088,4.21-1.845,5.022l-0.085,0.112
			c-2.122,3.39-4.326,4.962-6.568,4.987c-0.017,0-0.033,0-0.049,0c-2.831,0-5.536-2.723-6.815-4.371l-0.217-0.304
			c0,0-0.041-0.101-0.202-0.272c-0.021-0.032-0.04-0.036-0.059-0.066l-0.029-0.03c-0.779-0.846-2.53-3.035-1.802-4.975
			c0.924-2.464,3.389-0.411,3.389-0.411s-1.027-4.108-5.648-0.822c-2.96,2.105-1.748,5.047-0.495,6.894
			c-0.953,0.413-1.967,0.545-3.076,0.327l-0.172-0.026c-16.675-1.799-22.287-5.775-22.287-7.36L31.42,51.065
			c3.901,2.362,9.943,3.821,15.363,4.702c1.071,0.174,1.997,0.334,2.834,0.478c3.904,0.673,6.03,1.037,12.189,1.091l3.246,11.608
			l0.3,0.038l0.149-14.46L39.96,31.981l-0.567,3.992c-1.009,7.092-0.248,11.55,1.199,14.413c-7.431-1.966-9.288-4.22-9.289-5.141
			l-0.312-6.698l-0.032-0.679L30.302,23.77z M87.76,52.411c-2.513,0.347-5.126,0.608-7.765,0.761l15.888-13.137
			C94.695,49.53,90.294,51.827,87.76,52.411z M49.342,52.131c-1.871-0.564-6.845-0.413-6.376-11.427l15.006,12.528
			c-3.085-0.147-4.864-0.452-7.674-0.937C49.997,52.243,49.669,52.187,49.342,52.131z M8.923,21.135l18.104,18.452l0.267,5.74
			c0,0.059,0.017,0.112,0.019,0.17L15.891,34.906c0,0,2.828,19.121,11.752,25.654l0.172,6.944
			C13.564,55.104,9.871,31.605,8.923,21.135z M69.111,102.119c-31.79-1.217-35.423-13.933-35.633-14.799l-0.715-12.053l0.371-0.73
			c3.887,1.985,9.28,3.262,13.977,4.064C44.991,83.335,57.85,98.408,57.85,98.408s-1.756-3.458-5.269-11.24
			c-2.029-4.494-0.435-6.632,1.273-7.642c0.53,0.086,1.057,0.149,1.573,0.149c1.588,0,3.094-0.434,4.485-1.235
			c1.759,2.038,5.134,5.15,9.342,5.15c0.025,0,0.05,0,0.075,0c3.262-0.029,6.247-1.871,8.894-5.473
			c1.639,0.612,3.393,0.941,4.896,1.101c1.884,0.851,4.13,2.933,1.865,7.951c-3.513,7.781-5.269,11.24-5.269,11.24
			s13.205-15.02,9.056-19.209c6.848-0.631,12.184-2.108,15.627-4.255l-0.852,13.163C96.433,101.954,69.311,102.118,69.111,102.119z
			 M108.651,71.304l0.132-2.032l-0.012-0.001c0.052-0.312,0.092-0.628,0.097-0.951l0.235-2.213
			c13.735-8.024,17.848-32.182,17.848-32.182l-16.034,15.131l0.251-2.361l-0.21-0.021c0.121-0.402,0.207-0.808,0.218-1.224
			l0.296-2.129l0.627-0.557l21.149-21.922C132.919,31.992,129.875,59.513,108.651,71.304z"/>
		<polygon fill="#5D007F" points="57.186,85.269 69.318,94.997 79.229,86.183 69.389,89.519 		"/>
		<path fill="#5D007F" d="M53.451,35.661l-0.102-0.081C53.394,35.622,53.429,35.65,53.451,35.661z"/>
	</g>
</g>
</svg>
